<?xml version="1.0"?>
<svg xmlns="http://www.w3.org/2000/svg" xmlns:xlink="http://www.w3.org/1999/xlink" xmlns:svgjs="http://svgjs.com/svgjs" version="1.1" width="512" height="512" x="0" y="0" viewBox="0 0 24 24" style="enable-background:new 0 0 512 512" xml:space="preserve"><g><g xmlns="http://www.w3.org/2000/svg" id="Layer_2" data-name="Layer 2"><path d="m21.892 9.928-1.092-1.09a1.425 1.425 0 0 1 -.419-1.012v-1.277a2.934 2.934 0 0 0 -2.93-2.931h-1.277a1.441 1.441 0 0 1 -1.011-.418l-1.091-1.092a2.934 2.934 0 0 0 -4.144 0l-1.09 1.092a1.445 1.445 0 0 1 -1.012.419h-1.278a2.934 2.934 0 0 0 -2.93 2.931v1.276a1.425 1.425 0 0 1 -.418 1.012l-1.092 1.09a2.934 2.934 0 0 0 0 4.144l1.092 1.09a1.425 1.425 0 0 1 .419 1.012v1.277a2.934 2.934 0 0 0 2.93 2.931h1.277a1.441 1.441 0 0 1 1.011.419l1.091 1.091a2.933 2.933 0 0 0 4.144 0l1.09-1.091a1.445 1.445 0 0 1 1.012-.419h1.278a2.934 2.934 0 0 0 2.93-2.931v-1.277a1.425 1.425 0 0 1 .419-1.012l1.091-1.09a2.934 2.934 0 0 0 0-4.144zm-6.362.6-4 4a.748.748 0 0 1 -1.06 0l-2-2a.75.75 0 0 1 1.06-1.06l1.47 1.471 3.47-3.469a.75.75 0 0 1 1.06 1.06z" fill="#3f97f6" data-original="#000000"/></g></g></svg>
